<svg xmlns="http://www.w3.org/2000/svg" fill="currentColor" viewBox="0 0 24 24">
  <path fill-rule="evenodd" d="M6.914 2.095a1 1 0 0 1-.509 1.32c-.91.403-1.44.78-1.837 1.287-.413.527-.748 1.28-1.104 2.565a1 1 0 0 1-1.928-.534c.379-1.367.8-2.423 1.457-3.263.673-.86 1.526-1.407 2.602-1.884a1 1 0 0 1 1.32.509Zm2.965.784a3 3 0 0 1 5.102 1.786A7.002 7.002 0 0 1 19 11v3.158a1.033 1.033 0 0 0 .302.73l1.405 1.405A1 1 0 0 1 20 18h-4a4 4 0 1 1-8 0H4a1 1 0 0 1-.707-1.707l1.405-1.405c.193-.194.302-.456.302-.729V11c0-2.8 1.645-5.216 4.019-6.335a3 3 0 0 1 .86-1.786ZM15 16h2.623A3.035 3.035 0 0 1 17 14.158V11a5.002 5.002 0 0 0-3.334-4.716A1 1 0 0 1 13 5.34V5a1 1 0 0 0-2 0v.341a1 1 0 0 1-.667.943A5.004 5.004 0 0 0 7 11v3.159c0 .669-.221 1.315-.623 1.841H15Zm-5 2a2 2 0 0 0 4 0h-4Zm7.595-14.586a1 1 0 1 1 .81-1.828c1.076.477 1.93 1.023 2.602 1.884.657.84 1.078 1.896 1.457 3.263a1 1 0 0 1-1.928.534c-.356-1.285-.691-2.038-1.104-2.565-.396-.506-.926-.884-1.837-1.288Z" clip-rule="evenodd" />
</svg>