<svg xmlns="http://www.w3.org/2000/svg" fill="currentColor" viewBox="0 0 24 24">
  <path fill-rule="evenodd" d="M9.879 2.879a3 3 0 0 1 5.102 1.786A7.002 7.002 0 0 1 19 11v3.158c0 .056.005.113.014.168L17 12.312V11a5.003 5.003 0 0 0-3.334-4.716A1 1 0 0 1 13 5.34V5a1 1 0 0 0-2 0v.341a1 1 0 0 1-.279.693L9.065 4.378a3 3 0 0 1 .814-1.5ZM12.14 16l3.547 3.548A4 4 0 0 1 8 18H4a1 1 0 0 1-.707-1.707l1.405-1.405c.193-.194.302-.456.302-.729V11c0-.653.09-1.285.257-1.884l1.745 1.745A5.056 5.056 0 0 0 7 11v3.159c0 .669-.221 1.315-.623 1.841h5.764ZM10 18a2 2 0 0 0 4 0h-4ZM6.121 4.293a1 1 0 0 0-1.414 1.414l14.586 14.586a1 1 0 0 0 1.414-1.414L6.121 4.293Z" clip-rule="evenodd" />
</svg>