<svg xmlns="http://www.w3.org/2000/svg" fill="currentColor" viewBox="0 0 20 20">
  <path d="M12.296 9.207c.227.226.503.62.813 1.24h-.001a1 1 0 0 0 1.79-.894c-.358-.714-.748-1.32-1.188-1.76C13.268 7.35 12.695 7 12.003 7c-.692 0-1.265.35-1.707.793-.44.44-.83 1.046-1.187 1.76-.31.62-.587 1.014-.813 1.24-.177.177-.273.203-.293.207-.02-.003-.116-.03-.293-.207-.226-.227-.502-.62-.812-1.24a1 1 0 1 0-1.789.894c.357.714.747 1.32 1.187 1.76.442.443 1.015.793 1.707.793.692 0 1.265-.35 1.707-.793.441-.44.831-1.046 1.188-1.76.309-.62.586-1.014.812-1.24.177-.177.273-.203.293-.207.02.004.116.03.293.207Z" />
</svg>